<svg xmlns="http://www.w3.org/2000/svg" viewBox="0 0 257 129"><path fill="#eac365" d="M154.12 35.85c.07.06.82.07 1.15.18.78.29 4.25 3.91 4.7 4.69.42.73.27 1.61.64 2.12.19.26 2.87 1.56 3.56 2.16.6.52 1.31 1.33 1.7 2.02.84 1.52 1.99 6.04 2.08 7.78.14 2.83-2.44 3.85-4.12 5.5-3.04 2.98-6.63 8.08-11.1 8.54-1.62.17-3.94-.2-5.58-.45-1.6-.24-4.67-1.28-5.99-1.28-.26 0-.5.01-.72.17-2.97 2.99-5.85 6.06-8.9 8.97-2.93 2.8-6.05 5.34-9.04 8.06-4.96 4.51-9.93 12-17.58 9.68-.62-.19-2.33-1.14-2.72-1.04-2.08 1.18-8.61 8.66-10.47 8.71-1.89.06-3.45-2.66-2.24-4.29l9.09-8.23c.18-.42-.81-2.62-.93-3.4-1.1-7.27 5.97-11.07 10.56-15.25 6.45-5.89 12.68-12.07 19.86-17.11-.02-3.94-1.17-8.72-.43-12.61.76-3.96 6.21-7.24 9.16-9.75 2.5-2.13 2.99-4.35 6.92-3.56 1.6.32 6.77 2.06 7.78 3.14s2.4 5.05 2.63 5.24Zm-6.54-1.58c-.2-.18-4.75-1.57-5.07-1.46l-9.29 8.46c-.35.34-.41.8-.44 1.26-.12 2.13.36 4.69.38 6.87l16.28-10.93c.09-.22-1.61-3.97-1.86-4.19Zm6.55 7.59c-3.13 1.64-6.14 3.59-9.08 5.55-10.02 6.69-19.72 14.21-28.43 22.46l6.02 6.89.43.13c11.43-10.12 21.68-21.55 30.82-33.76.16-.21.38-.33.6-.46l-.36-.82Zm-8.97 20.69 7.08.86c3.15-3.15 6.97-5.49 10.07-8.7-.02-1.9-.51-3.76-1.13-5.54-.75-.19-3.31-2.18-3.84-1.79zm-32.35 11.02c-.41-.2-6.31 5.22-6.97 5.88-1.2 1.19-2.98 3.13-3.05 4.89-.1 2.42 1.9 4.9 4.46 4.78 4.71-.22 8.42-5.6 11.79-8.36z"/><path fill="none" d="M0 0h257v129H0z"/></svg>