<svg xmlns="http://www.w3.org/2000/svg" viewBox="0 0 150 150"><g fill="#fff" fill-rule="evenodd"><path d="M119.96 23.97h-42.8c-3.38 0-4 1.47-7.21 4.84L27.81 70.82c-5.17 5.15-5.17 13.51 0 18.67l32.77 32.68c5.17 5.15 13.55 5.15 18.73 0l42.14-42.01c2.71-2.71 4.63-4.05 4.63-7.42V30.06c0-3.36-2.74-6.09-6.12-6.09m-3.2 51.52L74.62 117.5a6.64 6.64 0 0 1-9.37 0L32.48 84.82a6.573 6.573 0 0 1 0-9.33l42.14-42.01c1.5-1.5 3.9-3.42 5.59-3.42h36.69c1.69 0 3.06 1.37 3.06 3.05v36.58c0 1.68-1.55 4.15-3.2 5.8"/><path d="M86.33 45.15a13.176 13.176 0 0 0 0 18.67c5.17 5.16 13.55 5.16 18.73 0a13.176 13.176 0 0 0 0-18.67C99.89 40 91.5 40 86.33 45.15m14.04 14a6.64 6.64 0 0 1-9.37 0 6.585 6.585 0 0 1 0-9.34 6.64 6.64 0 0 1 9.37 0 6.585 6.585 0 0 1 0 9.34"/></g><path fill="none" d="M0 0h150v150H0z"/></svg>