<svg xmlns="http://www.w3.org/2000/svg" viewBox="0 0 71.75 71.98"><path fill="#fff" d="M48.35 62.95H33.83c.88 3.57-.05 6.42-3.31 8.23-2.31 1.29-5.22.87-7.24-.84-1.74-1.47-3.17-4.23-1.83-7.74-.04-.06-.07-.15-.13-.17-3.95-1.66-5.56-4.81-6.12-8.92-1.1-8.11-2.47-16.18-3.71-24.27-.93-6.06-1.83-12.12-2.75-18.18-.34-2.25-.72-4.49-1.09-6.79-1.85 0-3.61.04-5.37-.01C.57 4.22-.45 2.72.2 1.27.57.43 1.26.02 2.16.02c2.43-.02 4.87-.04 7.3 0 1.29.02 1.98.76 2.21 2.24.45 2.88.88 5.76 1.32 8.65.12.81.25 1.62.4 2.56.46.02.93.06 1.4.06h49.54c3.7 0 6.38 1.61 7.17 4.73.39 1.53.27 3.26.06 4.86-.62 4.63-1.39 9.24-2.11 13.85-.52 3.32-.95 6.66-1.58 9.96-.78 4.11-4.51 6.93-9 6.94-12.58.01-25.16 0-37.75 0h-1.43c.14 2.98 2 4.77 4.84 4.77h38.98c1.27.05 2.2.9 2.24 2.05.04 1.19-.88 2.13-2.22 2.19-.85.04-1.71 0-2.65 0 .88 3.43.09 6.22-2.9 8.06-2.39 1.47-4.9 1.33-7.18-.29-2.64-1.88-3.21-4.54-2.45-7.72Zm3.93-31.38h13.71c.53-3.36 1.06-6.67 1.58-9.99.03-.22.05-.45.06-.67.12-2.11-.83-3.13-2.96-3.14H52.28zM29.87 17.84H14.05c.71 4.63 1.41 9.18 2.11 13.71h13.71zm4.37 18v13.73h13.71V35.84zm13.7-4.27V17.84H34.26v13.73zm-31.12 4.28c.71 4.61 1.41 9.17 2.12 13.74h10.91V35.85zm48.52.03H52.31v13.77h6.39c.52 0 1.06 0 1.56-.11 1.94-.45 3.28-2 3.58-3.99.48-3.21.99-6.41 1.5-9.66ZM54.59 67.65c1.35 0 2.46-1.05 2.46-2.35 0-1.29-1.14-2.39-2.45-2.38-1.3 0-2.34 1.03-2.37 2.32-.03 1.34 1.01 2.41 2.37 2.42Zm-24.69-2.4c-.02-1.33-1.03-2.33-2.35-2.34-1.36 0-2.4 1.06-2.38 2.43s1.06 2.35 2.47 2.31c1.33-.04 2.28-1.05 2.26-2.4"/></svg>