<svg xmlns="http://www.w3.org/2000/svg" viewBox="0 0 297.36 46.67"><g fill="#fff"><path d="M203.55 35.87c0 3.34.58 5.36 2.39 5.8l1.6.36v4.14h-13.27v-4.14l2.32-.36c1.75-.36 2.32-2.46 2.32-5.8V10.8c0-3.4-.87-5.51-2.32-5.79l-2.32-.37V.51h16.24l9.56 26.02h.07V10.8c0-3.4-.87-5.51-2.32-5.79l-2.32-.37V.51h13.91v4.13l-2.24.37c-1.53.29-2.39 2.39-2.39 5.79v35.37h-8.41L203.68 10.8h-.14v25.08ZM22.98 21.82c0-7.17-2.33-17.1-7.99-17.1-4.34 0-5.22 3.99-5.22 8.05v19.28c0 5.73 1.96 9.93 6.24 9.93s6.97-2.82 6.97-10.87h7.46c0 7.76-4.13 15.51-14.64 15.51C4.35 46.61 0 37.33 0 28.49V16.45C0 8.84 5.87 0 15 0c2.11 0 3.99.44 5.88 1.38 1.15.66 2.61 1.24 3.48 1.24.72 0 1.16-.44 1.16-2.32h4.93v21.52h-7.46Zm22.96-2.25h11.88V10.8c0-3.4-.87-5.51-2.46-5.79l-2.25-.37V.51h17.47v4.13l-2.25.37c-1.51.29-2.39 2.39-2.39 5.79v25.08c0 3.34.58 5.44 2.39 5.8l2.25.36v4.14H53.11v-4.14l2.25-.36c1.89-.36 2.46-2.46 2.46-5.8v-9.93H45.94v9.93c0 3.34.58 5.44 2.39 5.8l2.32.36v4.14H33.11v-4.14l2.32-.36c1.74-.36 2.32-2.46 2.32-5.8V10.8c0-3.4-.87-5.51-2.32-5.79l-2.32-.37V.51h17.46v4.13l-2.25.37c-1.52.29-2.39 2.39-2.39 5.79v8.77Zm40.13 5.07v11.89c0 2.9 1.09 5 4.78 5 5.08 0 6.31-3.7 6.31-8.19v-3.55h4.56v16.38H73.24v-4.14l2.32-.36c1.73-.29 2.31-2.46 2.31-5.8V10.8c0-3.4-.87-5.51-2.31-5.79l-2.32-.37V.51h28.48v15.8h-4.56v-3.05c0-5.44-2.9-8.26-6.31-8.26-3.69 0-4.78 1.74-4.78 5.07v9.41h7.18v5.15h-7.18ZM104.39.51h17.54v4.13l-2.32.37c-1.59.22-2.17 1.66-1.59 4.78l5 24.93 6.59-24.57c.94-3.12.29-4.86-1.59-5.14l-2.33-.37V.51h14v4.13l-2.33.37c-1.59.29-2.31 3.11-3.62 7.97l-9.06 33.19h-7.83l-7.1-36.39c-.51-2.46-1.59-4.56-3.05-4.78l-2.31-.37zM147 10.8c0-3.4-.87-5.51-2.32-5.79l-2.32-.37V.51h17.47v4.13l-2.32.37c-1.45.29-2.32 2.39-2.32 5.79v25.08c0 3.34.58 5.44 2.39 5.8l2.32.36v4.14h-17.54v-4.14l2.32-.36c1.74-.36 2.32-2.46 2.32-5.8z"/><path d="M190.53 46.17h-3.84c-.29-.65-.8-1.31-1.6-1.31s-1.81.51-2.97 1.02-3.4.72-5.72.72c-10.87 0-15.22-9.28-15.22-18.11V16.38c-.02-8.19 5.5-16.38 15-16.38 2.1 0 4.05.51 5.86 1.38 1.17.51 2.4 1.24 3.48 1.24.87 0 1.16-1.38 1.16-2.32h4.92v21.52h-7.46c-.07-7.17-2.31-17.1-7.96-17.1-4.36 0-5.22 3.99-5.22 8.05v19.28c0 4.06 1.96 9.93 6.59 9.93 3.12 0 6.52-1.16 6.52-7.17 0-2.76-1.15-3.84-2.6-3.84h-1.15v-5.51h14.85v5.51h-2.46c-1.74 0-2.17 1.66-2.17 3.77v11.45Zm70.35-16.39c.07 9.14-5.88 16.89-15 16.89s-15.15-6.52-15.08-16.38l.07-13.84c0-8.55 5.95-16.38 15.01-16.38s14.92 7.32 15 16.38zm-20.16 2.32c0 5.29.79 9.93 5.15 9.93s5.14-5 5.14-9.93V12.83c0-4.06-.88-8.05-5.14-8.05s-5.15 3.99-5.15 8.05v19.28Zm30.77 3.84c0 3.34.58 5.36 2.4 5.8l1.59.36v4.14h-13.27V42.1l2.32-.36c1.75-.36 2.32-2.46 2.32-5.8V10.87c0-3.4-.87-5.51-2.32-5.79l-2.32-.37V.58h16.24l9.57 26.02h.07V10.87c0-3.4-.87-5.51-2.32-5.79l-2.32-.37V.58h13.91v4.13l-2.24.37c-1.53.29-2.4 2.39-2.4 5.79v35.37h-8.41l-12.69-35.37h-.14v25.08Z"/></g></svg>