<svg xmlns="http://www.w3.org/2000/svg" viewBox="0 0 150 150"><g fill="#fff"><path d="M136.3 58.19c.28-.97.33-2.5-1-4.27-.27-.36-.67-.58-1.08-.64-.04 0-.08-.01-.12-.01l.1-.1c.21-.22.4-.44.56-.67.77-1.08 1.04-2.28.77-3.48-.53-2.33-2.95-3.83-3.45-4.12-.58-.38-5.43-3.57-13.38-7.88-.76-.41-1.67-.41-2.45 0-1.08.58-3.03.3-3.85.11l-12.97-7.39-4.01 1.48 14.6 8.31c-3.47 1.63-8.93 1.28-12.69.21-2.96-.84-5.68-2.17-7.67-3.74-.77-.61-1.44-1.25-2.02-1.91l-3.23 1.19c.85 1.16 1.93 2.27 3.22 3.28 2.32 1.84 5.45 3.37 8.81 4.33 2.13.6 4.82 1.05 7.55 1.05s5.7-.48 8.01-1.74c.94-.51 1.63-.97 2.35-1.57 1 0 2.11-.13 3.11-.58.56.31 1.1.6 1.63.9-.47.33-.95.63-1.45.9-3.02 1.65-13.65 6.67-23.61 2.21-3.74-1.67-6.68-3.37-8.98-5.19-1.03-.82-1.98-1.76-2.81-2.8l-3.21 1.19c1.15 1.58 2.49 2.98 3.99 4.18 2.52 1.99 5.68 3.83 9.68 5.62 3.38 1.51 6.8 2.08 10.03 2.08 7.6 0 14.12-3.12 16.47-4.4 1.04-.57 2.04-1.25 2.98-2.03 5.1 2.94 8.08 4.91 8.12 4.94l.11.07c.55.31 1.73 1.21 1.91 2.02.04.18.05.45-.24.85-.34.47-1.14 1.21-3.04 2.08-.05.02-.09.04-.14.07l-26.34 15.21-3.24 1.87-6.45 3.73-3.21 1.85L76.5 83a1.635 1.635 0 0 0-.47 2.42c.49.63 1.39.82 2.11.41L96.02 75.5l6.53-3.77 3.24-1.87 24.69-14.26c.71-.33 1.34-.66 1.89-1.01-.08.43.02.9.3 1.28.42.55.58 1.03.47 1.4-.22.79-1.47 1.52-2.04 1.75-.05.02-.11.05-.16.07-.21.11-4.18 2.18-22.05 12.62-1.03.6-2.1 1.23-3.22 1.89q-3.03 1.77-6.54 3.84c-1.03.6-2.09 1.23-3.18 1.87-3.99 2.35-8.42 4.97-13.33 7.88-3.21 1.96-5.85 2.7-7.93 2.84-2.34.16-3.96-.44-4.84-.91-.48-.26-.74-.47-.78-.51-.08-.08-.18-.14-.27-.2L46.25 75.22l-3.23-1.89-23.38-13.68c-.31-.22-2.74-2.03-2.85-4.43-.07-1.6.92-3.26 2.95-4.93 3.32-2.27 12.79-8.02 22.67-13.94l-3.53-1.7c-9.28 5.56-17.89 10.81-21.04 12.98l-.11.08c-2.92 2.39-4.33 4.97-4.2 7.68.21 4.2 4.16 6.89 4.33 7 .03.02.05.03.08.05l21.88 12.8c-9.48 5.68-18.36 11.08-21.57 13.29l-.11.08c-2.92 2.39-4.33 4.97-4.2 7.68.21 4.2 4.16 6.89 4.33 7 .03.02.05.03.08.05l49.09 28.72c.33.26 1.16.85 2.43 1.35.03 0 .05.02.08.03 1.13.43 2.6.79 4.42.79 2.72 0 6.19-.8 10.35-3.33l1.56-.93c13.27-7.87 26.98-16 40.61-23.75.44-.25.94-.5 1.45-.77 2.65-1.35 6.28-3.2 6.44-6.94.06-1.36 0-2.73-.2-4.07-.02-.11-.04-.21-.08-.31.24-.25.46-.5.64-.76.77-1.08 1.04-2.28.77-3.48-.56-2.46-3.22-3.99-3.47-4.13l-20.35-12.15c15.39-8.98 19.73-11.31 20.28-11.6.61-.25 3.22-1.47 3.9-3.86Zm-27.4 17.34 2.43 1.45a55.5 55.5 0 0 0-6.03 4.31l-3.01-1.88c2.38-1.4 4.58-2.69 6.62-3.88Zm-88.82 25.06c-.31-.22-2.74-2.03-2.85-4.43-.07-1.6.92-3.26 2.95-4.93 3.34-2.29 12.92-8.11 22.88-14.06l23.69 13.86c-6.87 4.13-13.03 7.9-14.68 9.15-.51.39-1.04.78-1.57 1.16-3.4 2.48-7.25 5.28-7.8 10.33-.08.74-.07 1.46.01 2.17L20.07 100.6Zm46.79 25.13c-.12.79-.11 1.53-.01 2.22l-19.79-11.57c-.04-.21-.13-.42-.26-.61-.69-.99-1-2.36-.85-3.74.39-3.61 3.35-5.76 6.47-8.04.55-.4 1.1-.8 1.63-1.21 1.64-1.26 8.81-5.61 16.1-9.99 1.04.33 2.31.57 3.81.57 2.72 0 6.19-.8 10.35-3.33 5.52-3.27 10.42-6.17 14.78-8.73l5.98 3.73c-1.94 1.14-3.78 2.45-5.57 3.74-.91.66-1.82 1.31-2.74 1.93-1.02.69-2.73 1.86-3.09 3.86-.66 3.68 2.39 6.9 4.52 8.84-8.46 4.87-17.48 9.99-22.54 12.67-5.31 2.78-8.27 6.04-8.81 9.67Zm41.4-38.71 8.75 5.46c-2.66 1.56-8.85 5.17-15.83 9.2-1.35-1.18-4.72-4.16-4.29-6.53.11-.6.94-1.21 1.71-1.73.94-.64 1.87-1.31 2.8-1.98 2.21-1.59 4.49-3.22 6.85-4.41Zm23.27 11.4c-.08 1.84-2.51 3.08-4.66 4.17-.56.29-1.1.56-1.59.84-13.65 7.76-27.38 15.9-40.66 23.78l-1.58.94c-5.56 3.39-9.43 3.12-11.57 2.43-.49-.59-1.7-2.29-1.38-4.39.38-2.49 2.83-4.99 7.09-7.22 11.38-6.02 42.56-24.29 42.87-24.48.03-.02.05-.04.08-.06l3.79 2.36-47 27.14c-.78.45-1.05 1.45-.6 2.23s1.45 1.05 2.23.6l52.34-30.23c.21-.1.41-.19.6-.29q.075 1.08.03 2.16Zm-17.18-19.44s.09-.06.13-.1l16.35 9.76c.55.31 1.73 1.21 1.91 2.02.04.18.05.45-.24.85-.34.47-1.14 1.21-3.04 2.08-.05.02-.09.05-.14.07l-2.19 1.27-18.92-11.8c1.94-1.53 3.99-2.93 6.13-4.16Z"/><path d="m39.45 37.99-1.58-2.83 32.76-18.3.03-.02a10.69 10.69 0 0 1 10.38.51l.06.04 7.9 5.46-1.85 2.67-7.86-5.44c-2.15-1.33-4.88-1.47-7.14-.35z"/><path d="M80.13 38.72c-.23-.26-5.51-6.33-3.08-13.42 1.11-3.22 3.31-5.25 4.96-6.37l1.83 2.68c-1.25.85-2.9 2.37-3.72 4.75-1.82 5.31 2.39 10.16 2.44 10.21z"/><path d="M86.58 37.66c-.42-.31-4.08-3.17-3.89-8.11.2-4.94 4.09-7.5 4.53-7.78l1.71 2.76c-.12.07-2.87 1.82-3 5.15s2.46 5.29 2.57 5.37l-1.93 2.61Z"/><path d="m86.886 26.093 1.645-2.802 13.15 7.721-1.645 2.803z"/></g><path fill="none" d="M0 0h150v150H0z"/></svg>