<svg xmlns="http://www.w3.org/2000/svg" viewBox="0 0 150 150"><g fill="none"><g stroke="#f0f0f0" stroke-linecap="round" stroke-linejoin="round"><path stroke-width="3.28" d="M34.11 75h81.78v52.25H34.11zM22.75 47.74h104.5V75H22.75z"/><path stroke-width="1.64" d="M65.91 47.74v79.51m18.18-79.51v79.51"/><path stroke-width="3.28" d="M75 47.74c-13.63 0-29.53-2.27-29.53-13.63 0-9.09 4.54-11.36 11.36-11.36 9.09 0 18.17 15.9 18.17 24.99m0 0c13.63 0 29.53-2.27 29.53-13.63 0-9.09-4.54-11.36-11.36-11.36-9.09 0-18.17 15.9-18.17 24.99"/></g><path d="M0 0h150v150H0z"/></g></svg>