<svg xmlns="http://www.w3.org/2000/svg" viewBox="0 0 88.66 88.76"><g fill="none" stroke="#fff" stroke-linecap="round" stroke-linejoin="round" stroke-width="4"><path d="M71.31 86.39 5.72 61.25s-8.38-24.41 0-39.71C14.1 6.23 40.34-3.61 62.2 5.5c9.27 3.86 15.46 13.74 19.29 24.77 5.21 14.98 6.07 32.07 4.39 38.99-2.91 12.02-9.03 19.25-14.57 17.12Z"/><path d="M80.05 30.64s-9.29.18-15.49-1.64c-6.19-1.82-15.88-7.1-20.24-5.47-4.36 1.64-6.18 5.47-4.17 10.38 2 4.92 12.57 31.52 44.45 33.88"/><path d="M51.88 29.92s-4.01 1.64-2.55 6.01 5.1 9.84 5.1 9.84m4.56 3.83L65 54.33"/></g></svg>