<svg xmlns="http://www.w3.org/2000/svg" viewBox="0 0 92.89 90.32"><path fill="none" stroke="#fff" stroke-linecap="round" stroke-linejoin="round" stroke-width="4" d="M77.29 47.33c1.67-.66 3.15-1.89 4.99-2.09 4.54-.5 4.74 2.93 3.36 6.32-1.25 3.05-3.86 5.56-6.2 7.77l2.04 12.39-6.84 7.98-15.65-33.42-25.82 21.37 2.36 13.44-3.4 3.48-23.8-23.8 3.48-3.4 13.44 2.36 21.37-25.82-33.43-15.66 7.98-6.84 12.39 2.04c2.34-2.39 4.72-5 7.92-6.26 3.38-1.34 6.66-1.02 6.17 3.42-.2 1.85-1.43 3.32-2.09 4.99l15.96 2.75c5.09-3.59 9.73-7.81 14.73-11.51 3.13-2.31 9.62-7.11 13.28-3.59 3.73 3.58-1.18 10.27-3.49 13.39-3.7 5-7.92 9.64-11.51 14.73l2.75 15.96ZM21.91 32.44l-8.17 7.24m51.24 41.4-8.17 7.24m5.05-17.53-8.17 7.24m-43.52-49.2L2 36.06"/></svg>