<svg xmlns="http://www.w3.org/2000/svg" viewBox="0 0 99.83 69.36"><g fill="#fff" stroke="#fff" stroke-miterlimit="10"><path d="M99.33 38.15c0 7.23-.42 13.03-2.1 18.68-.72 2.42-1.68 4.73-3.09 6.83-3.25 4.82-8.19 6.38-13.63 4.32-3.66-1.38-6.71-3.69-9.53-6.34-1.02-.95-1.97-1.98-2.94-2.98-6.51-6.64-14.39-8.96-23.45-7.19-5.28 1.03-9.67 3.73-13.29 7.72-2.64 2.91-5.58 5.47-9.02 7.41-1.97 1.11-4.05 1.96-6.33 2.19-3.66.37-6.68-.91-9.1-3.65-1.99-2.26-3.19-4.94-4.08-7.77C1.22 52.44.64 47.35.53 42.2c-.14-6.55.32-13.05 2.02-19.41C4.3 16.26 7.52 10.56 12.66 6.06c3.11-2.73 6.65-4.65 10.78-5.32 5.03-.81 9.55.43 13.62 3.48 3.93 2.95 8.35 4.49 13.29 4.39 4.7-.09 8.88-1.69 12.6-4.51 1.92-1.46 4.04-2.51 6.38-3.08 5.4-1.31 10.35-.11 14.92 2.85 5.18 3.36 8.72 8.1 11.2 13.69 1.88 4.23 2.83 8.71 3.31 13.28.3 2.88.46 5.78.57 7.3Zm-3.06 1.7c-.13-2.29-.19-4.58-.4-6.86-.42-4.6-1.18-9.13-2.97-13.43-2.05-4.93-5-9.19-9.35-12.38C77.54 2.76 70.24 2.29 64.23 7c-3.67 2.88-7.98 4.38-12.65 4.69-6.14.41-11.64-1.36-16.53-5.05-2.22-1.67-4.67-2.7-7.45-2.94-4.21-.36-7.92.99-11.27 3.43-4.99 3.64-8.17 8.6-10.14 14.37-1.8 5.28-2.37 10.77-2.53 16.3-.16 5.91.21 11.78 1.81 17.52.7 2.52 1.63 4.93 3.2 7.05 1.94 2.62 4.48 3.88 7.74 3.14 1.26-.28 2.52-.74 3.67-1.33 3.6-1.81 6.52-4.51 9.21-7.46 10.92-11.97 30.27-11.97 41.22-.02 1.45 1.59 3.05 3.07 4.68 4.47 2.19 1.87 4.6 3.4 7.41 4.18 3.37.93 6.15.05 8.32-2.72 1.39-1.78 2.3-3.81 2.98-5.93 1.76-5.48 2.26-11.14 2.35-16.87Z"/><path d="M20.8 34.54v-2.42c0-.93-.32-1.25-1.27-1.25h-4.91c-.86 0-1.16-.27-1.16-1.12-.01-1.59 0-3.19 0-4.78 0-.78.3-1.07 1.07-1.07 1.66-.01 3.32 0 4.97 0 1 0 1.29-.29 1.29-1.29v-4.84c0-.95.27-1.21 1.2-1.21h4.58c.92 0 1.2.29 1.2 1.23v4.91c0 .91.3 1.21 1.23 1.21h4.91c.94 0 1.2.27 1.2 1.21v4.58c0 .9-.28 1.18-1.17 1.18h-4.91c-.95 0-1.26.31-1.26 1.25v4.91c0 .9-.27 1.18-1.17 1.18h-4.71c-.82 0-1.09-.29-1.1-1.11v-2.55Zm61.96-10.76c2.01 0 3.61 1.6 3.61 3.61s-1.62 3.6-3.63 3.6c-1.96 0-3.57-1.62-3.58-3.59-.01-2 1.6-3.62 3.61-3.62Zm-3.63-3.66c0 2.02-1.59 3.63-3.59 3.63-2.01 0-3.61-1.6-3.61-3.62 0-2 1.62-3.61 3.63-3.6 1.98.01 3.57 1.6 3.57 3.58Zm-10.87 3.66c2.02-.01 3.63 1.58 3.64 3.58 0 2.01-1.6 3.62-3.6 3.62-1.99 0-3.58-1.57-3.6-3.56-.02-2.03 1.55-3.64 3.56-3.65Zm10.87 10.84c0 2.02-1.6 3.6-3.62 3.58a3.575 3.575 0 0 1-3.58-3.63c.03-1.98 1.63-3.57 3.6-3.56 2.02 0 3.61 1.6 3.61 3.61Zm-23 7.89h-2.88c-.72 0-1.03-.33-1.05-1.04-.02-.57-.01-1.13 0-1.7.01-.6.34-.95.94-.95 2.01-.01 4.02-.02 6.02 0 .64 0 .93.34.95 1 .02.52.01 1.05 0 1.57-.01.81-.31 1.12-1.1 1.13-.96.01-1.92 0-2.88 0Zm-12.48 0H40.9c-.9 0-1.19-.29-1.19-1.16v-1.57c0-.61.32-.96.92-.96q3.045-.03 6.09 0c.57 0 .88.35.89.92.02.59.03 1.18 0 1.77-.02.69-.32.99-1.02 1-.98.02-1.96 0-2.95 0Z"/></g></svg>